<svg width="41" height="40" viewBox="0 0 41 40" fill="none" xmlns="http://www.w3.org/2000/svg">
<g clip-path="url(#clip0_405_54049)">
<path d="M39.1818 6.65824C38.9636 6.09639 38.4906 5.68881 37.9164 5.56795C37.3295 5.44405 36.7164 5.63328 36.2764 6.07332L32.1737 10.176L30.1704 8.17264L34.5339 3.80916C34.9881 3.3549 35.1831 2.72229 35.0557 2.11687C34.9311 1.52497 34.5106 1.0373 33.9312 0.812272C30.1231 -0.667027 25.7963 0.243592 22.9081 3.13174C21.3874 4.65244 20.3945 6.57256 20.0358 8.68571C19.9592 9.04512 19.8849 9.42683 19.8064 9.83052C19.3476 12.1887 18.7767 15.1235 17.1026 16.7974L2.11414 31.786C0.263386 33.6367 0.263386 36.6483 2.11414 38.4991C3.03959 39.4245 4.25518 39.8871 5.47076 39.8871C6.68626 39.8871 7.90192 39.4245 8.8273 38.4991L23.8157 23.5106C25.4898 21.8366 28.4245 21.2657 30.7827 20.8069C31.1864 20.7283 31.5681 20.6541 31.9275 20.5774C34.0407 20.2188 35.9608 19.2259 37.4815 17.7052C37.9302 17.2565 38.0601 16.6474 37.8743 16.1059C39.9106 13.4084 40.4174 9.83961 39.1818 6.65824ZM37.3749 7.17176C37.4434 7.10341 37.5241 7.0728 37.5964 7.08818C37.6585 7.10123 37.7046 7.14582 37.7337 7.22062C38.7269 9.7777 38.3836 12.6322 36.8583 14.8606L33.2722 11.2745L37.3749 7.17176ZM36.3829 16.6068C35.088 17.9017 33.4524 18.7459 31.6529 19.0483C31.6415 19.0502 31.6304 19.0524 31.6191 19.0548C31.2689 19.1297 30.8886 19.2036 30.4859 19.282C27.9201 19.7811 24.7268 20.4023 22.717 22.4121L7.72878 37.4005C6.48383 38.6456 4.45792 38.6455 3.21274 37.4004C1.96772 36.1554 1.96772 34.1296 3.21274 32.8845L18.2012 17.896C20.211 15.8863 20.8322 12.693 21.3313 10.1272C21.4097 9.72449 21.4837 9.34418 21.5586 8.99401C21.561 8.98275 21.5631 8.97156 21.5651 8.96014C21.8673 7.16081 22.7116 5.52515 24.0067 4.23018C25.6791 2.5577 27.9191 1.66626 30.2007 1.66626C31.2654 1.66626 32.3396 1.86054 33.3688 2.26027C33.4624 2.29662 33.5185 2.35597 33.5355 2.43667C33.5547 2.52779 33.5182 2.6276 33.4354 2.71033L28.5226 7.62307C28.2193 7.9264 28.2193 8.41826 28.5226 8.72167L36.3872 16.5863C36.39 16.589 36.3924 16.5915 36.3945 16.5939C36.3915 16.5979 36.3877 16.602 36.3829 16.6068Z" fill="white"/>
<path d="M27.4239 9.82054C27.2781 9.67489 27.0806 9.59302 26.8746 9.59302C26.6686 9.59302 26.471 9.67489 26.3253 9.82054L24.1284 12.0176C23.825 12.3209 23.825 12.8128 24.1284 13.1162L27.2302 16.2181C27.3759 16.3637 27.5735 16.4456 27.7795 16.4456C27.9855 16.4456 28.1831 16.3637 28.3287 16.2181L30.5258 14.021C30.8291 13.7177 30.8291 13.2259 30.5258 12.9224L27.4239 9.82054ZM27.7794 14.5702L25.7761 12.5668L26.8746 11.4683L28.8779 13.4716L27.7794 14.5702Z" fill="white"/>
<path d="M6.01964 34.5931C5.71623 34.2897 5.2246 34.2901 4.92127 34.5933C4.61794 34.8967 4.61809 35.3887 4.92142 35.6921C5.07313 35.8437 5.27191 35.9196 5.47069 35.9196C5.66946 35.9196 5.86824 35.8437 6.01995 35.6921C6.32328 35.3888 6.32328 34.8969 6.01995 34.5935L6.01964 34.5931Z" fill="white"/>
<path d="M19.9103 19.6049L7.39351 32.1217C7.09018 32.425 7.09018 32.9168 7.39351 33.2203C7.54522 33.3719 7.744 33.4478 7.94278 33.4478C8.14155 33.4478 8.34033 33.3719 8.49204 33.2203L21.0088 20.7035C21.3122 20.4001 21.3122 19.9083 21.0088 19.6049C20.7054 19.3016 20.2137 19.3016 19.9103 19.6049Z" fill="white"/>
</g>
<defs>
<clipPath id="clip0_405_54049">
<rect width="39.7744" height="39.7744" fill="white" transform="translate(0.400391 0.112793)"/>
</clipPath>
</defs>
</svg>
